<?xml version="1.0" encoding="UTF-8" standalone="no"?>
<svg
   xmlns:dc="http://purl.org/dc/elements/1.1/"
   xmlns:cc="http://creativecommons.org/ns#"
   xmlns:rdf="http://www.w3.org/1999/02/22-rdf-syntax-ns#"
   xmlns:svg="http://www.w3.org/2000/svg"
   xmlns="http://www.w3.org/2000/svg"
   xmlns:sodipodi="http://sodipodi.sourceforge.net/DTD/sodipodi-0.dtd"
   xmlns:inkscape="http://www.inkscape.org/namespaces/inkscape"
   id="Layer_1"
   data-name="Layer 1"
   viewBox="0 0 312.58 271.46"
   version="1.1"
   sodipodi:docname="dsaide logo cropped.svg"
   inkscape:version="1.0.2 (e86c870879, 2021-01-15, custom)">
  <metadata
     id="metadata34">
    <rdf:RDF>
      <cc:Work
         rdf:about="">
        <dc:format>image/svg+xml</dc:format>
        <dc:type
           rdf:resource="http://purl.org/dc/dcmitype/StillImage" />
      </cc:Work>
    </rdf:RDF>
  </metadata>
  <sodipodi:namedview
     pagecolor="#ffffff"
     bordercolor="#666666"
     borderopacity="1"
     objecttolerance="10"
     gridtolerance="10"
     guidetolerance="10"
     inkscape:pageopacity="0"
     inkscape:pageshadow="2"
     inkscape:window-width="3440"
     inkscape:window-height="1377"
     id="namedview32"
     showgrid="false"
     inkscape:zoom="3.5446927"
     inkscape:cx="156.28999"
     inkscape:cy="135.73"
     inkscape:window-x="-8"
     inkscape:window-y="-8"
     inkscape:window-maximized="1"
     inkscape:current-layer="Layer_1" />
  <defs
     id="defs4">
    <style
       id="style2">.cls-1{fill:#d6c4b8;}.cls-2{fill:#6e829b;}.cls-3{fill:#4a6e3e;}.cls-4{fill:#a02932;}.cls-5{font-size:40.94px;fill:#3a2f2d;font-family:ITCAvantGardePro-Bold, ITC Avant Garde Gothic Pro;font-weight:700;}.cls-6{fill:none;stroke:#3a2f2d;stroke-miterlimit:10;stroke-width:8px;}</style>
  </defs>
  <path
     class="cls-1"
     d="m 179.18,23.42 c 9.91,16.94 15.92,37.94 22.77,65.5 8.09,-18.71 19.14,-37.86 40,-53.33 q 2.9,-2.14 6,-4.14 L 232.12,4 h -68.18 a 85.42,85.42 0 0 1 15.24,19.42 z"
     id="path6"
     inkscape:export-xdpi="300.207"
     inkscape:export-ydpi="300.207" />
  <path
     class="cls-1"
     d="m 222.66,117.94 c -1.44,3.77 -2.93,7.65 -4.48,11.51 9,8.85 16.6,21.1 23.23,33.29 6.53,12 15.25,21.09 32.63,27.42 h 2.25 l 31.66,-54.81 -45,-77.86 c -1.08,0.72 -2.14,1.46 -3.16,2.21 -20.73,15.39 -28.7,36.2 -37.13,58.24 z"
     id="path8"
     inkscape:export-xdpi="300.207"
     inkscape:export-ydpi="300.207" />
  <path
     class="cls-1"
     d="m 180.81,216.52 c -8.24,9.65 -19.11,17.13 -34.34,20.87 -11.21,7.46 -23.15,7.85 -34.82,7.85 H 68.06 l 12.39,21.46 h 151.66 l 10.3,-17.83 c -21.12,-2.69 -44.53,-10.52 -61.6,-32.35 z"
     id="path10"
     inkscape:export-xdpi="300.207"
     inkscape:export-ydpi="300.207" />
  <path
     class="cls-1"
     d="m 109.69,205.24 c 12.16,0 13.89,-0.35 15.46,-1.83 6.32,-5.93 15.07,-27.75 21.11,-43.65 a 141,141 0 0 1 7.03,-15.91 l -0.48,-2.11 c -1.51,-6.67 -3.07,-13.56 -4.81,-20.73 l -0.41,-1.68 C 129.92,46.65 125.59,44.12 108.26,44.12 H 57.29 l -52.66,91.23 40.35,69.88 z"
     id="path12"
     inkscape:export-xdpi="300.207"
     inkscape:export-ydpi="300.207" />
  <path
     class="cls-2"
     d="m 147.62,119.35 0.41,1.68 c 1.74,7.17 3.3,14.07 4.81,20.73 l 0.48,2.11 c 7.22,-13.62 17.93,-26.24 34.54,-27.36 1.09,-0.07 2.15,-0.08 3.21,0 1.19,-3 2.36,-6 3.57,-9.21 2.28,-6 4.63,-12.1 7.31,-18.3 C 195.11,61.35 189.09,40.35 179.18,23.42 A 85.41,85.41 0 0 0 163.94,4.01 H 80.46 l -23.17,40.1 h 51 c 17.37,-0.01 21.66,2.53 39.33,75.24 z"
     id="path14"
     inkscape:export-xdpi="300.207"
     inkscape:export-ydpi="300.207" />
  <path
     class="cls-2"
     d="m 275.93,190.81 0.38,-0.66 h -2.27 q 0.93,0.35 1.89,0.66 z"
     id="path16"
     inkscape:export-xdpi="300.207"
     inkscape:export-ydpi="300.207" />
  <path
     class="cls-2"
     d="m 206.29,181.85 c -1.51,-2.78 -2.79,-5.38 -3.93,-7.77 -5.32,15.54 -11.45,30.62 -21.53,42.44 17.07,21.81 40.51,29.67 61.6,32.34 l 13.19,-22.84 c -22.33,-9.08 -37.84,-23.01 -49.33,-44.17 z"
     id="path18"
     inkscape:export-xdpi="300.207"
     inkscape:export-ydpi="300.207" />
  <path
     class="cls-3"
     d="m 180.81,216.52 c 10.08,-11.82 16.21,-26.9 21.53,-42.44 l -1.18,-2.49 c -5.32,-11.41 -11.68,-11.7 -15.81,-3.11 a 52.13,52.13 0 0 1 -1.7,5.48 l -1.12,2.93 -0.06,0.23 v 0 c -12.12,31.55 -20.07,46.23 -29.92,55.48 a 46.67,46.67 0 0 1 -6.07,4.83 c 15.22,-3.79 26.1,-11.26 34.33,-20.91 z"
     id="path20"
     inkscape:export-xdpi="300.207"
     inkscape:export-ydpi="300.207" />
  <path
     class="cls-3"
     d="m 201.95,88.92 c -2.68,6.2 -5,12.35 -7.31,18.3 -1.21,3.17 -2.38,6.22 -3.57,9.21 10.38,0.28 19.29,5.37 27.11,13 1.55,-3.86 3,-7.73 4.48,-11.51 8.43,-22 16.4,-42.85 37.18,-58.23 1,-0.76 2.08,-1.49 3.16,-2.21 l -15,-26 q -3.07,2 -6,4.14 c -20.91,15.44 -31.96,34.59 -40.05,53.3 z"
     id="path22"
     inkscape:export-xdpi="300.207"
     inkscape:export-ydpi="300.207" />
  <path
     class="cls-4"
     d="m 241.41,162.73 c -6.63,-12.18 -14.19,-24.44 -23.23,-33.29 -7.81,-7.65 -16.73,-12.73 -27.11,-13 -1.06,0 -2.12,0 -3.21,0 -16.57,1.17 -27.32,13.78 -34.57,27.4 a 141,141 0 0 0 -7,15.91 c -6,15.9 -14.79,37.72 -21.11,43.65 -1.57,1.48 -3.31,1.87 -15.46,1.83 H 44.98 l 23.09,40 h 43.59 c 11.67,0 23.6,-0.39 34.82,-7.85 a 46.67,46.67 0 0 0 6.07,-4.83 c 9.85,-9.26 17.8,-23.93 29.92,-55.48 v 0 l 0.06,-0.23 1.12,-2.93 a 52.13,52.13 0 0 0 1.7,-5.48 c 4.13,-8.58 10.48,-8.3 15.81,3.11 l 1.18,2.49 c 1.14,2.4 2.42,5 3.93,7.77 11.51,21.16 27,35.09 49.33,44.17 l 20.33,-35.2 -1.89,-0.66 c -17.38,-6.28 -26.1,-15.38 -32.63,-27.38 z"
     id="path24"
     inkscape:export-xdpi="300.207"
     inkscape:export-ydpi="300.207" />
  <text
     class="cls-5"
     id="text26"
     x="58.082157"
     y="108"
     style="font-size:48px"
     inkscape:export-xdpi="300.207"
     inkscape:export-ydpi="300.207"><tspan
       style="fill:#000000"
       id="tspan876">DSAIDE</tspan></text>
  <polygon
     class="cls-6"
     points="232.12 4 80.45 4 4.62 135.35 80.45 266.7 232.12 266.7 307.96 135.35 232.12 4"
     id="polygon29"
     style="stroke-width:4;stroke-miterlimit:10;stroke-dasharray:none;stroke:#1e1e64;stroke-opacity:1"
     inkscape:export-xdpi="300.207"
     inkscape:export-ydpi="300.207" />
</svg>
