<svg xmlns="http://www.w3.org/2000/svg" xmlns:xlink="http://www.w3.org/1999/xlink" viewBox="0 0 432 432"><defs><style>.cls-1{fill:none;}.cls-2{clip-path:url(#clip-path);}.cls-3{fill:#d6c4b8;}.cls-4{fill:#6e829b;}.cls-5{fill:#4a6e3e;}.cls-6{fill:#a02932;}.cls-7{font-size:40.94px;fill:#101010;font-family:ITCAvantGardePro-Bold, ITC Avant Garde Gothic Pro;font-weight:700;}</style><clipPath id="clip-path"><polygon class="cls-1" points="367.66 216 291.83 347.34 140.17 347.34 64.34 216 140.17 84.66 291.83 84.66 367.66 216"/></clipPath></defs><g id="Layer_3" data-name="Layer 3"><g class="cls-2"><rect class="cls-3" width="432" height="432"/><path class="cls-4" d="M444.16,330.8H324.76c-25,0-60.94-3.52-84.51-34-15.32-19.79-21.06-45.12-27.7-74.45-1.51-6.66-3.07-13.55-4.81-20.73l-.41-1.68c-17.67-72.68-22-75.22-39.33-75.22H85.34v-60H168c32.24,0,55.43,12.86,70.89,39.32,11.77,20.12,18.05,46,26.74,81.72l.41,1.69c1.86,7.63,3.47,14.76,5,21.65,5.07,22.37,9.44,41.69,16.62,51,2.48,3.2,8.29,10.7,37.07,10.7h119.4Z"/><path class="cls-5" d="M182.29,320.7H98v-30h84.3c35,0,42.13-17.29,54.93-56.38,3.42-10.43,6.95-21.22,11.62-32.44,1.89-4.54,3.65-9.14,5.51-14,9.16-23.92,19.53-51,47.36-71.63,30.54-22.59,75.8-33.12,142.45-33.12v30c-59.08,0-99.84,8.91-124.61,27.24-20.78,15.38-28.75,36.19-37.18,58.23-1.85,4.86-3.78,9.88-5.83,14.82-4.23,10.14-7.57,20.36-10.81,30.24C253.33,281.53,240.51,320.7,182.29,320.7Z"/><path class="cls-6" d="M301.12,243.38c-12.94-23.78-29.43-47.88-53.55-46.25-23.15,1.57-34.83,25.45-41.6,43.28-6,15.89-14.79,37.71-21.11,43.65-1.57,1.48-3.3,1.86-15.46,1.83H95.88v40h75.49c13.8,0,28-.55,40.89-12.68,9.85-9.26,17.79-23.94,29.92-55.49v0l.06-.23,1.12-2.93a52.87,52.87,0,0,0,1.7-5.48c4.13-8.59,10.48-8.3,15.81,3.11,1.42,3,3.06,6.5,5.1,10.26,13.23,24.32,31.68,39.1,59.82,47.92,25.43,8,59.77,11.38,114.81,11.38v-40C339.77,281.8,315.28,269.41,301.12,243.38Z"/><text class="cls-7" transform="translate(140.95 340.65)">DSAIDE</text></g></g></svg>